HIERARCHY
ROOT Hips
{
	OFFSET -3.958830 18.904000 13.208200
	CHANNELS 6 Xposition Yposition Zposition Zrotation Yrotation Xrotation 
	JOINT LHipJoint
	{
		OFFSET 0.000000 0.000000 0.000000
		CHANNELS 3 Zrotation Yrotation Xrotation
		JOINT LeftUpLeg
		{
			OFFSET 1.800000 -1.400000 0.085000
			CHANNELS 3 Zrotation Yrotation Xrotation
			JOINT LeftLeg
			{
				OFFSET 2.215000 -6.000000 0.000000
				CHANNELS 3 Zrotation Yrotation Xrotation
				JOINT LeftFoot
				{
					OFFSET 2.500000 -6.900000 0.000000
					CHANNELS 3 Zrotation Yrotation Xrotation
					JOINT LeftToeBase
					{
						OFFSET 0.200000 -0.500000 1.950000
						CHANNELS 3 Zrotation Yrotation Xrotation
						End Site
						{
							OFFSET 0.000000 0.000000 0.000000
						}
					}
				}
			}
		}
	}
	JOINT RHipJoint
	{
		OFFSET 0.000000 0.000000 0.000000
		CHANNELS 3 Zrotation Yrotation Xrotation
		JOINT RightUpLeg
		{
			OFFSET -1.800000 -1.400000 0.085000
			CHANNELS 3 Zrotation Yrotation Xrotation
			JOINT RightLeg
			{
				OFFSET -2.215000 -6.000000 0.000000
				CHANNELS 3 Zrotation Yrotation Xrotation
				JOINT RightFoot
				{
					OFFSET -2.500000 -6.900000 0.000000
					CHANNELS 3 Zrotation Yrotation Xrotation
					JOINT RightToeBase
					{
						OFFSET -0.200000 -0.500000 1.950000
						CHANNELS 3 Zrotation Yrotation Xrotation
						End Site
						{
							OFFSET 0.000000 0.000000 0.000000
						}
					}
				}
			}
		}
	}
	JOINT LowerBack
	{
		OFFSET 0.000000 0.000000 0.000000
		CHANNELS 3 Zrotation Yrotation Xrotation
		JOINT Spine
		{
			OFFSET -0.087000 1.940000 -0.288900
			CHANNELS 3 Zrotation Yrotation Xrotation
			JOINT Spine1
			{
				OFFSET 0.000000 1.950000 0.060000
				CHANNELS 3 Zrotation Yrotation Xrotation
				JOINT Neck
				{
					OFFSET 0.000000 0.000000 0.000000
					CHANNELS 3 Zrotation Yrotation Xrotation
					JOINT Neck1
					{
						OFFSET 0.000000 1.600000 0.340000
						CHANNELS 3 Zrotation Yrotation Xrotation
						JOINT Head
						{
							OFFSET 0.000000 1.667000 -0.240000
							CHANNELS 3 Zrotation Yrotation Xrotation
							End Site
							{
								OFFSET 0.000000 0.000000 0.000000
							}
						}
					}
				}
				JOINT LeftShoulder
				{
					OFFSET 0.000000 0.000000 0.000000
					CHANNELS 3 Zrotation Yrotation Xrotation
					JOINT LeftArm
					{
						OFFSET 2.700000 1.550000 -0.730000
						CHANNELS 3 Zrotation Yrotation Xrotation
						JOINT LeftForeArm
						{
							OFFSET 5.450000 0.000000 0.000000
							CHANNELS 3 Zrotation Yrotation Xrotation
							JOINT LeftHand
							{
								OFFSET 3.450000 0.000000 0.000000
								CHANNELS 3 Zrotation Yrotation Xrotation
								JOINT LeftHandIndex1
								{
									OFFSET 0.750000 0.000000 0.000000
									CHANNELS 3 Zrotation Yrotation Xrotation
									End Site
									{
										OFFSET 0.000000 0.000000 0.000000
									}
								}
							}
						}
					}
				}
				JOINT RightShoulder
				{
					OFFSET 0.000000 0.000000 0.000000
					CHANNELS 3 Zrotation Yrotation Xrotation
					JOINT RightArm
					{
						OFFSET -2.700000 1.550000 -0.730000
						CHANNELS 3 Zrotation Yrotation Xrotation
						JOINT RightForeArm
						{
							OFFSET -5.450000 0.000000 0.000000
							CHANNELS 3 Zrotation Yrotation Xrotation
							JOINT RightHand
							{
								OFFSET -3.450000 0.000000 0.000000
								CHANNELS 3 Zrotation Yrotation Xrotation
								JOINT RightHandIndex1
								{
									OFFSET -0.750000 0.000000 0.000000
									CHANNELS 3 Zrotation Yrotation Xrotation
									End Site
									{
										OFFSET 0.000000 0.000000 0.000000
									}
								}
							}
						}
					}
				}
			}
		}
	}
}
MOTION
Frames: 14
Frame Time: 0.016667
-1.705470 18.132870 2.256980 4.233791 -4.972621 -3.095728 -16.159424 9.281706 7.848179 23.506105 -12.695026 -61.235189 -21.591084 40.516822 82.774892 2.888143 19.454110 -1.315242 0.079160 -0.111840 -0.062690 18.067887 -8.494335 1.734968 -4.552390 -1.671873 2.176368 7.773011 -4.720935 1.966274 -0.405216 -4.114639 3.166944 0.069460 0.409770 -0.053210 -2.017393 -1.847732 -9.529454 -7.454897 9.503505 16.155614 3.613290 10.095631 6.110134 -0.990226 -3.556814 -9.739275 -13.292595 3.600743 48.350488 4.878690 -1.374220 -4.252910 -17.103691 -7.836605 1.282385 -40.118501 -14.928433 -2.870467 -20.578586 -53.657876 7.650483 -3.699450 2.909128 0.532640 0.101290 -0.156930 0.120700 19.770575 14.238784 8.422310 42.378673 0.496011 -4.973593 6.349802 16.177866 0.087875 2.155468 -0.984795 -0.429860 0.483430 0.249130 -0.155100 
-1.695860 18.140960 2.179560 4.070454 -5.730321 -3.693560 -16.139943 9.310231 7.824397 23.761145 -12.418552 -60.051776 -21.880595 40.974739 82.825978 2.914328 19.443043 -1.326725 0.119900 -0.062730 -0.019100 18.062380 -8.512451 1.793889 -5.053285 -1.756914 2.843071 8.395046 -4.818904 1.519520 -0.464470 -4.189344 3.131732 0.077430 0.347340 -0.048420 -2.047924 -1.818094 -9.617835 -6.625983 9.682020 17.358079 3.317143 10.565922 5.636755 -0.686763 -3.365612 -10.050068 -13.335291 3.381811 49.520440 4.657340 -1.368940 -5.217170 -18.446561 -8.752173 1.061766 -38.072609 -14.957437 -2.709034 -22.243348 -51.453063 8.273051 -3.670163 2.899642 0.558080 0.062570 -0.106760 0.118680 20.513431 15.001103 9.116837 41.174506 -1.105083 -5.305879 7.312691 16.557803 0.192908 2.152672 -0.986652 -0.399350 0.461660 0.215830 -0.163580 
-1.678280 18.132830 2.114990 3.754012 -6.526418 -4.179102 -16.097584 9.370245 7.763082 23.757567 -12.109021 -58.432020 -21.798089 41.077854 82.890649 2.924721 19.373131 -1.327923 0.152640 -0.011900 0.014180 18.073078 -8.579060 1.845475 -5.283038 -1.849182 3.300934 8.549406 -4.873673 1.464452 -0.503204 -4.229358 3.107669 0.088840 0.292040 -0.053210 -2.130078 -1.739203 -9.674921 -5.242485 9.588170 18.338467 2.837750 10.878721 5.147009 -0.417656 -3.308621 -10.153018 -13.485044 3.364644 50.399695 4.291200 -1.202030 -5.914470 -19.819324 -9.011805 0.808514 -36.879145 -14.640726 -2.570918 -24.255411 -49.597705 8.977413 -3.649191 2.903932 0.565060 0.030750 -0.070550 0.112070 21.270596 15.203356 9.416176 40.308371 -2.168951 -5.468000 7.879763 16.530296 0.230987 2.162507 -0.991744 -0.369830 0.441250 0.187400 -0.167330 
-1.658540 18.104290 2.057240 3.363246 -7.021142 -4.332240 -16.060315 9.457708 7.692025 23.405901 -12.223076 -57.261127 -20.813782 40.636065 83.759404 2.918780 19.408039 -1.341354 0.147550 -0.021280 0.011630 18.083196 -8.635505 1.877501 -5.337690 -1.858890 3.295048 8.781698 -4.956523 1.713960 -0.502182 -4.252500 3.100316 0.085070 0.296620 -0.041540 -2.198408 -1.736797 -9.699527 -3.893590 9.204056 18.960018 2.555419 10.836715 4.611790 -0.269107 -3.435732 -9.929873 -13.667020 3.349445 49.945953 3.727890 -1.182890 -6.011270 -21.277524 -8.726749 0.431749 -36.496738 -14.205220 -2.346385 -26.078959 -47.366977 9.341886 -3.682573 2.897813 0.563500 0.040630 -0.073430 0.108170 22.315413 14.899432 9.386407 39.240624 -2.991495 -5.638351 8.629919 16.699034 0.291318 2.146527 -0.996037 -0.368660 0.438000 0.196830 -0.169360 
-1.641590 18.061940 2.001060 3.085640 -7.435078 -4.169149 -16.037402 9.520338 7.653771 23.203419 -12.374722 -56.548147 -20.160935 40.455716 84.522725 2.891572 19.522263 -1.371549 0.121210 -0.072780 0.009960 18.092678 -8.672874 1.870226 -5.164247 -1.787502 2.795587 8.880462 -5.031225 2.311896 -0.468892 -4.227418 3.101675 0.079360 0.327330 -0.027500 -2.245115 -1.750685 -9.689823 -2.960559 8.733236 19.107145 2.368282 10.556359 4.123905 -0.191467 -3.503283 -9.373916 -13.381184 3.205595 48.534899 2.954300 -1.014330 -6.144230 -22.550940 -8.015334 -0.042884 -36.569171 -13.736111 -2.068887 -27.982265 -44.977259 9.547523 -3.748553 2.874032 0.570320 0.068850 -0.098430 0.091560 23.285600 14.089488 8.937834 38.559635 -3.100532 -5.674786 9.438296 16.506956 0.329484 2.125525 -0.988129 -0.400190 0.451180 0.230730 -0.186450 
-1.617320 18.027190 1.939710 2.872778 -7.724351 -4.211306 -15.995852 9.611771 7.610927 22.840126 -12.731230 -55.544758 -19.667137 40.323034 85.266034 2.863329 19.629449 -1.410636 0.109040 -0.105180 0.022130 18.108757 -8.740335 1.856889 -5.088722 -1.690241 2.161328 8.875546 -5.130299 3.251143 -0.437564 -4.181645 3.100603 0.083960 0.334820 -0.023970 -2.324148 -1.762708 -9.688903 -1.827601 7.912606 19.659100 1.836701 10.036276 3.452314 -0.036431 -3.580091 -8.820279 -13.200146 3.389547 47.792851 2.277090 -0.606800 -6.462890 -24.288213 -7.337824 -0.495303 -36.632030 -12.830079 -2.095396 -29.436627 -42.591710 9.433992 -3.790749 2.854634 0.586760 0.079350 -0.113060 0.071160 24.522817 13.278564 8.332931 37.970532 -2.735413 -5.605083 10.300417 16.006998 0.349707 2.114801 -0.979407 -0.430360 0.459970 0.255430 -0.210500 
-1.592950 17.999570 1.877130 2.877783 -8.294527 -4.371982 -15.945317 9.785999 7.508433 21.934446 -13.073681 -53.924282 -18.982934 39.705400 85.513094 2.805853 19.605411 -1.422698 0.100890 -0.130880 0.042240 18.114610 -8.878767 1.803767 -5.303530 -1.459152 0.934991 8.861605 -5.367858 5.247308 -0.393809 -4.099056 3.114929 0.087460 0.339040 -0.025920 -2.394763 -1.767363 -9.628923 -1.006517 7.103530 20.021423 1.318689 9.431131 2.900328 0.144433 -3.577792 -8.367101 -12.959094 3.977275 47.938472 1.737800 0.191150 -6.695170 -25.633641 -6.639120 -0.770409 -37.613530 -11.848146 -2.349475 -29.621468 -40.303252 8.711170 -3.820181 2.816138 0.610990 0.085160 -0.118500 0.054100 25.368095 12.441415 7.599054 38.195617 -1.874136 -5.504271 10.848492 15.166018 0.321479 2.115343 -0.954781 -0.461310 0.475980 0.272270 -0.235850 
-1.572850 17.982780 1.802710 2.848468 -8.809098 -4.702516 -15.877752 10.033962 7.377500 20.762925 -13.445549 -51.803903 -17.896958 38.590508 85.729877 2.741180 19.468136 -1.410990 0.116970 -0.129820 0.087250 18.120703 -9.081026 1.732529 -5.294296 -1.182695 -0.806366 8.496269 -5.697378 8.324246 -0.359112 -3.977458 3.143718 0.087660 0.316500 -0.018930 -2.480104 -1.767572 -9.560526 -0.157995 6.062666 20.738766 0.506275 8.646875 2.222912 0.483594 -3.456712 -8.209724 -12.621055 4.673770 49.102398 1.000380 1.269640 -7.198110 -26.913146 -6.444414 -0.784002 -38.438696 -10.579416 -2.944471 -29.206322 -38.252816 7.787973 -3.818350 2.778923 0.647750 0.075850 -0.093710 0.044860 25.895622 12.015929 6.992540 39.256126 -0.907745 -5.520175 11.259950 14.473252 0.294198 2.124222 -0.927516 -0.469820 0.480100 0.264360 -0.261500 
-1.554370 17.969440 1.725440 2.767714 -9.864665 -4.978315 -15.787200 10.335240 7.197988 19.488544 -13.421953 -49.029663 -16.598251 37.315723 85.712488 2.671285 19.224067 -1.383202 0.125660 -0.119700 0.112590 18.137144 -9.313248 1.670529 -5.123688 -0.826926 -3.017425 7.886001 -6.030300 12.027790 -0.316440 -3.872870 3.160559 0.088250 0.282580 -0.025830 -2.609042 -1.760268 -9.471826 0.979983 4.943179 21.422592 -0.553109 7.847199 1.421976 0.777032 -3.728939 -8.180213 -13.176657 5.956649 50.386024 0.369720 2.490250 -7.227250 -28.420295 -6.250794 -0.765034 -39.001192 -9.122011 -3.654726 -28.692653 -36.636799 6.991894 -3.798131 2.768340 0.664220 0.059740 -0.075520 0.030890 26.705521 11.802998 6.522611 40.272551 -0.143329 -5.594072 11.342495 14.058150 0.263667 2.141709 -0.914118 -0.467300 0.469340 0.256520 -0.278480 
-1.539770 17.927340 1.663880 2.609677 -10.748643 -4.561421 -15.692143 10.597789 6.972105 18.099110 -13.377618 -46.417164 -15.043514 35.500474 85.376064 2.622282 18.840358 -1.298068 0.142800 -0.086430 0.120400 18.174543 -9.512781 1.652234 -4.477966 -0.418866 -5.689100 6.810908 -6.036997 14.900368 -0.272134 -3.728340 3.192951 0.086590 0.262580 -0.017050 -2.773058 -1.712592 -9.342438 2.247536 3.791292 20.936706 -1.584255 6.767847 1.022055 0.960013 -4.071117 -8.052898 -13.720212 7.074564 50.709114 -0.047030 3.465200 -6.521280 -28.861955 -5.681679 -0.708056 -40.509013 -8.273227 -4.076833 -27.788608 -35.046107 6.177083 -3.778728 2.797672 0.636420 0.055550 -0.060620 0.041920 26.678381 11.105783 5.899932 42.388614 0.538673 -5.754670 11.382065 13.894202 0.200814 2.182272 -0.939904 -0.430790 0.436530 0.227370 -0.262850 
-1.526040 17.872680 1.602220 2.162305 -11.253827 -3.968627 -15.593162 10.812439 6.773160 17.190468 -13.296512 -44.077044 -13.928966 33.877237 84.741572 2.543383 18.506909 -1.217165 0.107930 -0.129400 0.094590 18.230782 -9.660730 1.662434 -3.356273 0.053273 -8.543501 5.647969 -6.084802 18.164575 -0.221054 -3.663294 3.205592 0.059830 0.294000 -0.001500 -2.975398 -1.678716 -9.229949 4.039336 2.542875 20.407355 -2.707342 5.665354 0.625071 1.155876 -4.453613 -7.871403 -14.343039 7.957189 50.549222 -0.663910 4.153150 -5.327630 -29.341949 -5.088575 -0.763419 -42.013085 -7.659395 -4.386668 -27.155478 -34.101957 5.632933 -3.809055 2.793751 0.617580 0.083750 -0.077540 0.042870 26.609181 10.263723 5.386595 44.434920 0.675880 -6.126432 11.656525 14.065034 0.181972 2.192557 -0.940248 -0.432830 0.429890 0.245170 -0.254190 
-1.507320 17.808670 1.549120 1.684699 -11.303920 -2.990732 -15.490254 10.966516 6.550850 16.330887 -13.295854 -41.920231 -12.975317 32.177434 83.785031 2.484245 18.132838 -1.102026 0.054810 -0.180120 0.024260 18.306872 -9.757885 1.704004 -2.399791 0.609540 -11.666228 4.899846 -6.202219 21.223525 -0.162715 -3.706700 3.193233 0.031470 0.363280 0.013040 -3.223404 -1.624226 -9.085703 6.077337 1.293918 19.152710 -3.837575 4.414218 0.415416 1.229647 -4.896522 -7.362571 -14.881355 8.691369 49.231630 -0.953210 4.611880 -2.865590 -29.796595 -4.021310 -1.054903 -43.765445 -7.562266 -4.357661 -27.060898 -33.353614 5.420148 -3.864666 2.826686 0.549730 0.142860 -0.131650 0.061280 26.687948 8.805225 4.678855 46.325036 0.626320 -6.384290 11.938895 13.906314 0.106607 2.207596 -0.973667 -0.430420 0.413130 0.265230 -0.221760 
-1.484850 17.740000 1.503700 1.309073 -11.100431 -2.031822 -15.394777 11.125581 6.285258 15.487935 -13.281681 -39.393117 -12.355634 30.443277 82.189598 2.426637 17.642859 -0.957763 0.020560 -0.201570 -0.027630 18.379064 -9.825509 1.767332 -1.703466 1.139562 -14.703130 4.239027 -6.380966 24.269148 -0.126832 -3.838425 3.149143 0.009120 0.407320 0.020100 -3.459045 -1.615796 -8.913758 8.037282 0.082415 17.788784 -4.748807 3.108896 0.283442 1.284157 -5.403014 -6.768843 -15.548855 9.204311 47.532366 -1.502250 5.058590 -0.583220 -30.270963 -2.730889 -1.440422 -45.717062 -7.649674 -4.264369 -27.286868 -33.044325 5.458474 -3.901746 2.882379 0.464950 0.191400 -0.180680 0.077660 26.832721 7.149310 3.989413 48.033501 0.245353 -6.693679 12.057418 13.738199 -0.001491 2.235285 -1.023219 -0.407200 0.378290 0.262800 -0.187000 
-1.467200 17.659030 1.461320 1.365689 -10.817166 -1.264435 -15.340295 11.309018 5.991558 14.485696 -13.258442 -36.470615 -12.193116 28.975240 80.119854 2.351836 17.152616 -0.819233 0.010740 -0.207080 -0.057980 18.412101 -9.858746 1.830471 -1.513657 1.611015 -17.634254 3.656539 -6.657699 27.381343 -0.126943 -4.062304 3.060250 0.001040 0.442290 0.039360 -3.577468 -1.710680 -8.722882 8.974419 -0.828175 16.510419 -5.116007 1.941153 0.238211 1.191662 -5.869724 -6.045586 -16.135080 9.561300 45.479943 -1.787540 5.318280 0.606550 -30.309078 -1.058067 -2.002922 -47.927658 -8.244106 -3.820422 -28.033508 -33.051803 5.756377 -3.937031 2.936301 0.405590 0.227850 -0.212160 0.098450 26.925442 5.173547 3.203655 49.534948 -0.167666 -6.976881 11.889799 13.454907 -0.118052 2.253498 -1.063856 -0.386040 0.350200 0.255730 -0.160180 
